<svg width="293" height="44" viewBox="0 0 293 44" fill="none" xmlns="http://www.w3.org/2000/svg">
<path fill-rule="evenodd" clip-rule="evenodd" d="M25.3998 23.6776C25.3485 28.5558 22.3566 33.434 15.7118 33.434C9.06697 33.434 6.0238 28.6641 6.0238 23.7061C6.0238 18.7482 9.20375 13.7617 15.7118 13.7617C22.2199 13.7617 25.4568 18.7311 25.3998 23.6776ZM9.53427 23.7574C9.61405 26.8576 11.2838 30.1743 15.7289 30.1743C20.174 30.1743 21.8437 26.8291 21.9007 23.7346C21.9577 20.6402 20.1911 16.9986 15.7289 16.9986C11.2667 16.9986 9.44879 20.5832 9.53427 23.7574ZM27.2286 38.5511V19.745H30.3288L30.5453 21.5801C31.0446 20.909 31.696 20.3658 32.4459 19.9953C33.1958 19.6248 34.023 19.4375 34.8593 19.4487C38.9511 19.4487 41.6979 22.4976 41.6979 26.4013C41.6979 30.3049 39.2474 33.3538 34.9904 33.3538C33.5885 33.3538 31.5141 32.9207 30.5681 31.4675V38.5796L27.2286 38.5511ZM38.3584 26.3728C38.3584 25.3722 37.961 24.4126 37.2534 23.7051C36.5459 22.9976 35.5864 22.6002 34.5858 22.6002C33.5852 22.6002 32.6256 22.9976 31.9181 23.7051C31.2106 24.4126 30.8132 25.3722 30.8132 26.3728C30.8132 27.3733 31.2106 28.3329 31.9181 29.0404C32.6256 29.7479 33.5852 30.1454 34.5858 30.1454C35.5864 30.1454 36.5459 29.7479 37.2534 29.0404C37.961 28.3329 38.3584 27.3733 38.3584 26.3728ZM50.2933 30.3791C47.9796 30.3791 46.5492 29.1766 46.3326 27.5297L56.7216 27.5468C57.2288 22.0816 54.4535 19.3291 50.0084 19.3291C45.7001 19.3291 42.9532 22.2412 42.9532 26.2816C42.9532 30.5215 45.6944 33.3709 50.2534 33.3709C52.2594 33.3709 54.5503 32.67 55.9522 31.2111L53.8494 29.1367C53.0971 29.9175 51.5072 30.3791 50.2933 30.3791ZM50.1053 22.2241C51.9916 22.2241 53.3422 23.1017 53.553 24.8113H46.3896C46.874 23.0846 48.3272 22.2241 50.1053 22.2241ZM68.5898 32.9692V26.0167C68.5898 23.9993 67.4899 22.4606 65.387 22.4606C63.2842 22.4606 61.9678 24.1702 61.9678 26.1819V32.9692H58.708V19.6853H61.6429L61.8595 21.4861C63.2101 20.1697 64.555 19.4915 66.2248 19.4915C69.3534 19.4915 71.8552 21.8394 71.8552 26.0167V32.9692H68.5898ZM171.965 29.741V14.1718H168.409V32.9779H181.653V29.741H171.965ZM194.464 19.7168H197.616V32.9779H194.516L194.356 31.0403C193.604 32.6018 191.507 33.354 190.048 33.3825C186.11 33.411 183.209 30.9833 183.209 26.3217C183.209 21.6601 186.252 19.3464 190.133 19.3691C191.911 19.3691 193.61 20.2069 194.362 21.529L194.464 19.7168ZM186.486 26.3445C186.453 26.8749 186.532 27.4064 186.716 27.9047C186.901 28.403 187.188 28.857 187.559 29.2376C187.93 29.6182 188.377 29.917 188.87 30.1146C189.364 30.3122 189.893 30.4043 190.424 30.385C195.593 30.385 195.593 22.3325 190.424 22.3325C189.895 22.31 189.366 22.3989 188.873 22.5936C188.38 22.7882 187.934 23.0842 187.563 23.4625C187.191 23.8407 186.904 24.2927 186.718 24.7892C186.533 25.2856 186.454 25.8155 186.486 26.3445ZM202.87 21.5233V14.1718H199.565V32.9779H202.636L202.876 31.1713C203.343 31.867 203.983 32.429 204.734 32.8017C205.484 33.1745 206.319 33.3452 207.155 33.297C211.059 33.297 213.994 30.7097 213.994 26.3445C213.994 21.7683 211.11 19.3919 207.235 19.3919C205.833 19.3919 203.651 20.1499 202.87 21.5233ZM204.203 29.046C203.488 28.331 203.086 27.3613 203.086 26.3502V26.3445C203.076 25.8348 203.168 25.3282 203.357 24.855C203.547 24.3817 203.83 23.9516 204.19 23.5904C204.549 23.2291 204.978 22.9441 205.451 22.7525C205.923 22.5608 206.429 22.4664 206.939 22.475C207.447 22.4591 207.954 22.5492 208.425 22.7397C208.897 22.9302 209.324 23.2169 209.679 23.5814C210.034 23.946 210.309 24.3804 210.487 24.8571C210.664 25.3338 210.741 25.8423 210.712 26.3502C210.712 27.3613 210.31 28.331 209.595 29.046C208.88 29.761 207.91 30.1627 206.899 30.1627C205.888 30.1627 204.918 29.761 204.203 29.046Z" fill="white"/>
<path d="M112.297 18.9698C114.805 18.9698 116.518 19.7955 117.65 20.8354C118.965 22.0281 119.882 23.8631 119.882 26.0345C119.882 28.1754 118.965 30.0104 117.65 31.2031C116.518 32.2429 114.805 33.0687 112.297 33.0687C109.79 33.0687 108.077 32.2429 106.945 31.2031C105.63 30.0104 104.713 28.1754 104.713 26.0345C104.713 23.8631 105.63 22.0281 106.945 20.8354C108.077 19.7955 109.79 18.9698 112.297 18.9698ZM112.297 29.7657C114.469 29.7657 116.029 28.053 116.029 26.0345C116.029 23.9549 114.438 22.2728 112.297 22.2728C110.157 22.2728 108.566 23.9549 108.566 26.0345C108.566 28.053 110.126 29.7657 112.297 29.7657Z" fill="url(#paint0_linear_439_1654)"/>
<path d="M126.499 13.7617V21.1106C127.814 19.2756 129.68 18.9698 130.811 18.9698C134.726 18.9698 137.326 21.9975 137.326 26.0039C137.326 30.0409 134.634 33.0687 130.72 33.0687C129.863 33.0687 127.937 32.9158 126.499 30.9279V32.6405H122.768V13.7617H126.499ZM129.802 22.2728C127.661 22.2728 126.132 23.8937 126.132 26.0039C126.132 28.1142 127.661 29.7657 129.802 29.7657C131.943 29.7657 133.472 28.1142 133.472 26.0039C133.472 23.8937 131.943 22.2728 129.802 22.2728Z" fill="url(#paint1_linear_439_1654)"/>
<path d="M147.122 18.9698C149.63 18.9698 151.342 19.7955 152.474 20.8354C153.789 22.0281 154.707 23.8631 154.707 26.0345C154.707 28.1754 153.789 30.0104 152.474 31.2031C151.342 32.2429 149.63 33.0687 147.122 33.0687C144.614 33.0687 142.901 32.2429 141.77 31.2031C140.455 30.0104 139.537 28.1754 139.537 26.0345C139.537 23.8631 140.455 22.0281 141.77 20.8354C142.901 19.7955 144.614 18.9698 147.122 18.9698ZM147.122 29.7657C149.293 29.7657 150.853 28.053 150.853 26.0345C150.853 23.9549 149.263 22.2728 147.122 22.2728C144.981 22.2728 143.391 23.9549 143.391 26.0345C143.391 28.053 144.95 29.7657 147.122 29.7657Z" fill="url(#paint2_linear_439_1654)"/>
<path d="M163.893 22.5786H161.324V32.6405H157.592V22.5786H156.124V19.3979H157.592V14.8716H161.324V19.3979H163.893V22.5786Z" fill="url(#paint3_linear_439_1654)"/>
<path fill-rule="evenodd" clip-rule="evenodd" d="M100.192 14.9097C100.192 17.7448 98.9722 20.295 97.0286 22.064L104.204 33.1937H96.8214C96.2203 33.1937 95.6635 32.8771 95.3563 32.3603L90.7294 24.5788C90.7219 24.579 90.7145 24.5791 90.707 24.5793L89.9514 23.2509C89.7811 22.9516 89.6916 22.6132 89.6916 22.2689V22.0946C89.6916 21.7097 90.0187 21.406 90.4025 21.4344L92.049 21.5563C92.8166 21.6132 93.4707 21.0057 93.4707 20.2359V18.6189C93.4707 18.5026 93.5318 18.3949 93.6315 18.3351L94.4932 17.8184C94.66 17.7184 94.7051 17.4969 94.5907 17.3397L93.5309 15.8834C93.3586 15.6466 93.3049 15.3467 93.3459 15.0567C93.5205 13.8214 93.3055 12.0395 91.9719 11.0211C90.0872 9.58178 87.3302 9.35937 85.1089 10.6678C83.0732 11.8669 81.7046 15.8952 84.1581 19.3312C84.6059 19.9583 84.9274 20.6845 84.9274 21.455L84.9281 32.6427C84.8671 32.9567 84.5906 33.1937 84.2588 33.1937H79.4812V5.2383H79.5772V5.23828L90.2667 5.23828V5.24155C90.3511 5.23938 90.4358 5.23828 90.5208 5.23828C95.8622 5.23828 100.192 9.5683 100.192 14.9097ZM87.4588 11.7764L87.4589 11.7765L87.4589 11.7765H87.4589L87.4588 11.7764ZM87.4589 11.7765H88.0944C88.1779 11.7765 88.2543 11.8237 88.2917 11.8984L88.5765 12.468C88.6023 12.5195 88.6472 12.559 88.7017 12.5778L88.89 12.6428C88.9393 12.6599 88.9931 12.6589 89.0418 12.64L89.6406 12.4075C89.7221 12.3759 89.8146 12.3953 89.8764 12.4571L90.2477 12.8284C90.3116 12.8924 90.3301 12.9889 90.2941 13.072L90.0516 13.6325C90.0219 13.7011 90.0305 13.7795 90.0641 13.8463C90.0907 13.8995 90.112 13.9528 90.131 14.0059C90.1508 14.0609 90.19 14.107 90.2424 14.1331L90.8107 14.4173C90.8854 14.4547 90.9326 14.531 90.9326 14.6146V15.1108C90.9326 15.1959 90.8836 15.2735 90.8068 15.31L90.2818 15.5595C90.2276 15.5853 90.1869 15.6324 90.1617 15.6869C90.1482 15.7161 90.1334 15.7454 90.1186 15.7747C90.1016 15.8084 90.0846 15.8421 90.0695 15.8757C90.0485 15.9226 90.0504 15.9758 90.069 16.0237L90.302 16.6237C90.3336 16.7052 90.3141 16.7977 90.2523 16.8595L89.8767 17.235C89.8149 17.2968 89.7225 17.3163 89.641 17.2847L89.0736 17.0644C89.0066 17.0384 88.9319 17.048 88.8679 17.0806C88.8131 17.1084 88.7582 17.1304 88.7035 17.15C88.6484 17.1697 88.6024 17.209 88.5762 17.2613L88.2921 17.8296C88.2547 17.9044 88.1783 17.9516 88.0948 17.9516H87.5954C87.5119 17.9516 87.4355 17.9044 87.3982 17.8296L87.1134 17.2601C87.0876 17.2085 87.0426 17.1691 86.9881 17.1503L86.7999 17.0852C86.7505 17.0682 86.6967 17.0692 86.648 17.0881L86.0492 17.3206C85.9677 17.3522 85.8753 17.3327 85.8135 17.2709L85.4422 16.8996C85.3782 16.8357 85.3598 16.7391 85.3957 16.6561L85.6382 16.0956C85.6679 16.0269 85.6593 15.9485 85.6258 15.8817C85.5991 15.8286 85.5778 15.7753 85.5588 15.7222C85.5391 15.6671 85.4998 15.6211 85.4475 15.5949L84.8791 15.3108C84.8044 15.2734 84.7572 15.197 84.7572 15.1135V14.6142C84.7572 14.5306 84.8044 14.4543 84.8791 14.4169L85.4487 14.1321C85.5003 14.1063 85.5397 14.0614 85.5585 14.0069L85.6236 13.8187C85.6406 13.7693 85.6396 13.7155 85.6207 13.6668L85.3882 13.0681C85.3566 12.9866 85.3761 12.8941 85.4379 12.8323L85.8135 12.4568C85.8753 12.3949 85.9677 12.3755 86.0492 12.4071L86.648 12.6396C86.6967 12.6585 86.7505 12.6595 86.7999 12.6424L87.0225 12.5655C87.0549 12.5543 87.0817 12.5308 87.0971 12.5001L87.4589 11.7765ZM87.8451 13.7059C88.5013 13.7059 89.0031 14.2077 89.0031 14.8638C89.0031 15.52 88.5013 16.0217 87.8451 16.0217C87.1889 16.0217 86.6871 15.52 86.6871 14.8638C86.6871 14.2077 87.1889 13.7059 87.8451 13.7059Z" fill="url(#paint4_linear_439_1654)"/>
<rect x="77.4962" y="5.23828" width="1.98496" height="27.9554" fill="url(#paint5_linear_439_1654)" fill-opacity="0.6"/>
<rect x="75.9524" y="5.23828" width="1.54386" height="27.9555" fill="url(#paint6_linear_439_1654)" fill-opacity="0.4"/>
<path fill-rule="evenodd" clip-rule="evenodd" d="M251.925 13.7004L241.823 13.7066V15.9417H248.118C248.414 15.9409 248.708 15.9994 248.981 16.1138C249.255 16.2283 249.504 16.3965 249.713 16.6087C249.923 16.821 250.089 17.0731 250.202 17.3508C250.316 17.6284 250.374 17.926 250.374 18.2266V36.2817H246.831V31.0955H241.823V36.2817H238.286V31.0955H233.186V36.2817H229.649V18.2266C229.649 17.6206 229.886 17.0394 230.308 16.6109C230.73 16.1824 231.302 15.9417 231.898 15.9417H238.286V13.7066H229.379V10.5937H238.286V7.29395H241.823V10.5937H246.525L245.06 8.14068H248.596L251.925 13.7004ZM238.292 22.2921V19.036H233.192V22.2921H238.292ZM233.192 25.1187V28.2876L238.292 28.3188V25.1187H233.192ZM241.829 25.1187V28.2876L246.837 28.3188V25.1187H241.829ZM246.837 22.2921V19.036H241.823V22.2921H246.837Z" fill="white"/>
<path d="M224.834 13.7356L221.327 8.09909H225.067L228.574 13.7356H224.834Z" fill="white"/>
<path d="M221.327 16.1513L224.834 21.7878H228.574L225.067 16.1513H221.327Z" fill="white"/>
<path d="M225.067 36.2816H221.327L224.834 24.2034H228.574L225.067 36.2816Z" fill="white"/>
<path fill-rule="evenodd" clip-rule="evenodd" d="M259.977 8.10997C258.574 8.10997 257.437 9.24724 257.437 10.6501V14.3872C257.437 15.7901 258.574 16.9274 259.977 16.9274H267.475C268.878 16.9274 270.016 15.7901 270.016 14.3872V10.6501C270.016 9.24724 268.878 8.10997 267.475 8.10997H259.977ZM260.899 13.8869V11.1504H266.553V13.8869H260.899Z" fill="white"/>
<path fill-rule="evenodd" clip-rule="evenodd" d="M274.638 8.10997C273.235 8.10997 272.098 9.24724 272.098 10.6501V14.3872C272.098 15.7901 273.235 16.9274 274.638 16.9274H282.136C283.539 16.9274 284.676 15.7901 284.676 14.3872V10.6501C284.676 9.24724 283.539 8.10997 282.136 8.10997H274.638ZM275.56 13.8869V11.1504H281.214V13.8869H275.56Z" fill="white"/>
<path fill-rule="evenodd" clip-rule="evenodd" d="M273.79 17.4547H268.67L265.122 20.1534H255.736V23.2265H261.163L254.836 28.1222H257.437V33.7416C257.437 35.1445 258.574 36.2817 259.977 36.2817H267.475C268.878 36.2817 270.016 35.1445 270.016 33.7416V29.1559C270.016 27.753 268.878 26.6158 267.475 26.6158H261.901L266.278 23.2265H275.904L280.28 26.6158H274.638C273.235 26.6158 272.098 27.753 272.098 29.1559V33.7416C272.098 35.1445 273.235 36.2817 274.638 36.2817H282.136C283.539 36.2817 284.676 35.1445 284.676 33.7416V28.1222H287.345L281.018 23.2265H287.214L283.748 17.4547H279.215L280.835 20.1534H270.241L273.79 17.4547ZM260.899 33.2413V29.6562H266.553V33.2413H260.899ZM275.56 33.2413V29.6562H281.214V33.2413H275.56Z" fill="white"/>
<defs>
<linearGradient id="paint0_linear_439_1654" x1="131.275" y1="10.9182" x2="116.389" y2="57.5948" gradientUnits="userSpaceOnUse">
<stop stop-color="#0085FF"/>
<stop offset="1" stop-color="#0400DD"/>
</linearGradient>
<linearGradient id="paint1_linear_439_1654" x1="131.275" y1="10.9182" x2="116.389" y2="57.5948" gradientUnits="userSpaceOnUse">
<stop stop-color="#0085FF"/>
<stop offset="1" stop-color="#0400DD"/>
</linearGradient>
<linearGradient id="paint2_linear_439_1654" x1="131.275" y1="10.9182" x2="116.389" y2="57.5948" gradientUnits="userSpaceOnUse">
<stop stop-color="#0085FF"/>
<stop offset="1" stop-color="#0400DD"/>
</linearGradient>
<linearGradient id="paint3_linear_439_1654" x1="131.275" y1="10.9182" x2="116.389" y2="57.5948" gradientUnits="userSpaceOnUse">
<stop stop-color="#0085FF"/>
<stop offset="1" stop-color="#0400DD"/>
</linearGradient>
<linearGradient id="paint4_linear_439_1654" x1="84.1114" y1="8.74593" x2="88.2482" y2="52.3482" gradientUnits="userSpaceOnUse">
<stop stop-color="#0085FF"/>
<stop offset="1" stop-color="#0400DD"/>
</linearGradient>
<linearGradient id="paint5_linear_439_1654" x1="77.9755" y1="7.08177" x2="80.8612" y2="41.0105" gradientUnits="userSpaceOnUse">
<stop stop-color="#00A3FF"/>
<stop offset="1" stop-color="#1127E8"/>
</linearGradient>
<linearGradient id="paint6_linear_439_1654" x1="76.2415" y1="8.74592" x2="91.3046" y2="19.3401" gradientUnits="userSpaceOnUse">
<stop stop-color="#00A3FF"/>
<stop offset="1" stop-color="#003EDD"/>
</linearGradient>
</defs>
</svg>
